<svg width="313px" height="313px" viewBox="0 -6.19 313 313" xmlns="http://www.w3.org/2000/svg">
  <g id="gift" transform="translate(-1720.982 -1807.803)">
    <path id="Path_10" data-name="Path 10" d="M2003.769,1904.416h-46.885c4.835-3,8.644-5.306,11.462-8.123a51.814,51.814,0,0,0-36.557-88.428,51.331,51.331,0,0,0-36.556,15.114c-6.947,6.948-12.733,19.9-17.583,39.462-4.851-19.563-10.636-32.54-17.584-39.489a51.7,51.7,0,0,0-73.113-.016,52.014,52.014,0,0,0,0,73.325c2.833,2.833,6.667,5.155,11.54,8.155h-47.32a29.85,29.85,0,0,0-30.191,29.828v144.167a30,30,0,0,0,30.191,30.005h252.6a30.018,30.018,0,0,0,30.213-30.005V1934.244A29.869,29.869,0,0,0,2003.769,1904.416Zm-94.787,24v156h-63v-156Zm-10.191-49.6c6.018-29.36,11.912-37.069,13.575-38.732a27.469,27.469,0,0,1,38.847,38.846c-6.3,6.3-31.161,12.835-55.427,16.633C1896.563,1890.6,1897.562,1884.813,1898.791,1878.815Zm-94.7-38.733a27.47,27.47,0,0,1,38.847,0c6.3,6.3,12.834,31.161,16.632,55.428-4.966-.778-10.749-1.777-16.747-3.007-29.361-6.017-37.069-11.911-38.732-13.574a27.468,27.468,0,0,1,0-38.847Zm-59.1,238.329V1934.244a5.988,5.988,0,0,1,6.191-5.828h70.809v156h-70.809A6.136,6.136,0,0,1,1744.982,2078.411Zm265,0a6.155,6.155,0,0,1-6.213,6.005h-69.787v-156h69.787a6.008,6.008,0,0,1,6.213,5.828Z" fill="#453c5c"/>
  </g>
</svg>
