<svg width="311.012px" height="311.012px" viewBox="0 0 311.012 311.012" xmlns="http://www.w3.org/2000/svg">
  <g id="pen" transform="translate(-2346.464 -1805.801)">
    <path id="Path_11" data-name="Path 11" d="M2648.648,1861.794l-47.165-47.164a30.14,30.14,0,0,0-42.627,0l-197.433,197.43a12.111,12.111,0,0,0-3.438,6.937l-11.411,84.069a12.115,12.115,0,0,0,13.634,13.634l84.07-11.411a12.112,12.112,0,0,0,6.937-3.438l197.433-197.43a30.142,30.142,0,0,0,0-42.627Zm-211.677,220.035-64.247,8.72,8.721-64.246,139.906-139.9,55.525,55.526Zm194.543-194.541-37.5,37.5-55.526-55.525,37.5-37.5a5.913,5.913,0,0,1,8.362,0l47.165,47.164a5.91,5.91,0,0,1,0,8.361Z" fill="#453c5c"/>
  </g>
</svg>
